<svg width="291" height="388" viewBox="0 0 291 388" fill="none" xmlns="http://www.w3.org/2000/svg">
<g clip-path="url(#clip0_1488_989)">
<path d="M240.443 270.67C240.501 270.785 240.558 270.891 240.618 270.996C240.558 270.891 240.501 270.785 240.443 270.67Z" fill="#00AAFF"/>
<path d="M240.158 270.108C240.212 270.218 240.267 270.333 240.324 270.443L240.158 270.108Z" fill="#0685ED"/>
<path d="M239.818 269.362C239.908 269.569 240.001 269.772 240.095 269.975C239.999 269.777 239.908 269.574 239.818 269.362Z" fill="#13C2E9"/>
<path d="M239.656 268.984L239.817 269.36C239.761 269.241 239.708 269.112 239.656 268.984Z" fill="#0685ED"/>
<path d="M239.346 268.196C239.448 268.463 239.552 268.726 239.657 268.984C239.548 268.719 239.444 268.457 239.346 268.196Z" fill="#0685ED"/>
<path d="M239.198 267.79C239.246 267.928 239.296 268.062 239.346 268.196C239.294 268.062 239.244 267.928 239.198 267.79Z" fill="#0685ED"/>
<path d="M239.053 267.375L239.198 267.79C239.146 267.666 239.099 267.514 239.053 267.375Z" fill="#0685ED"/>
<path d="M238.913 266.951L239.053 267.375C239.003 267.237 238.957 267.094 238.913 266.951Z" fill="#0685ED"/>
<path d="M238.646 266.08C238.731 266.375 238.821 266.665 238.913 266.951C238.819 266.665 238.731 266.375 238.646 266.08Z" fill="#0685ED"/>
<path d="M238.518 265.629L238.646 266.09C238.602 265.933 238.56 265.781 238.518 265.629Z" fill="#0685ED"/>
<path d="M238.251 264.592C238.283 264.725 238.315 264.854 238.349 264.983C238.315 264.854 238.273 264.725 238.251 264.592Z" fill="#0685ED"/>
<path d="M207.994 306.977C208.076 307.29 208.16 307.599 208.241 307.899C208.156 307.599 208.074 307.299 207.994 306.977Z" fill="#0685ED"/>
<path d="M290.771 124.389V207.797H226.883C226.84 207.796 226.797 207.81 226.763 207.837C226.728 207.864 226.704 207.902 226.695 207.945L226.792 124.389H290.771Z" fill="#0685ED"/>
<path d="M290.771 0.0511524V82.9383H251.789C245.166 82.9383 238.814 85.5704 234.131 90.2556C229.448 94.9408 226.817 101.295 226.817 107.921V124.364H138.171V100.192C138.171 44.8725 183.019 0.0256348 238.299 0.0256348H290.791L290.771 0.0511524Z" fill="#0685ED"/>
<path d="M226.791 124.389L226.684 290.755C225.257 340.843 187.076 381.724 138.171 387.352V124.389H226.791Z" fill="#00AAFF"/>
<path d="M138.172 267.669V387.352C134.331 387.795 130.469 388.016 126.603 388.015H100.128C44.8274 388.015 0 343.148 0 287.849V124.389H88.513V267.705H88.5588V280.349C88.5588 292.586 96.6059 302.237 107.925 304.567C124.457 307.963 138.095 296.364 138.095 279.482L138.172 267.669Z" fill="#13C2E9"/>
<path opacity="0.5" d="M226.684 290.755V388.015H138.171V387.353C187.076 381.724 225.257 340.844 226.684 290.755Z" fill="#0685ED"/>
</g>
<defs>
<clipPath id="clip0_1488_989">
<rect width="291" height="388" fill="white"/>
</clipPath>
</defs>
</svg>
